HIERARCHY
ROOT simHips
{
  OFFSET 139.304 97.4441 -24.0387
  CHANNELS 6 Xposition Yposition Zposition Zrotation Xrotation Yrotation
  JOINT simSpine
  {
    OFFSET -0.000355721 21.3001 -0.016921
    CHANNELS 3 Zrotation Xrotation Yrotation
    JOINT simLeftArm
    {
      OFFSET 13.5181 21.3012 0
      CHANNELS 3 Zrotation Xrotation Yrotation
      JOINT simLeftForeArm
      {
        OFFSET 24.5783 0 0
        CHANNELS 3 Zrotation Xrotation Yrotation
        JOINT simLeftHand
        {
          OFFSET 24.5783 0 0
          CHANNELS 3 Zrotation Xrotation Yrotation
          End Site
          {
            OFFSET 7.32568 1.52588e-05 0.0169305
          }
        }
      }
    }
    JOINT simHead
    {
      OFFSET 0 27.4458 -0.00489235
      CHANNELS 3 Zrotation Xrotation Yrotation
      End Site
      {
        OFFSET 0 0 0
      }
    }
    JOINT simRightArm
    {
      OFFSET -13.5174 21.3012 0
      CHANNELS 3 Zrotation Xrotation Yrotation
      JOINT simRightForeArm
      {
        OFFSET -24.5783 0 0
        CHANNELS 3 Zrotation Xrotation Yrotation
        JOINT simRightHand
        {
          OFFSET -24.5783 0 0
          CHANNELS 3 Zrotation Xrotation Yrotation
          End Site
          {
            OFFSET -7.32568 1.52588e-05 0.0169305
          }
        }
      }
    }
  }
  JOINT simRightUpLeg
  {
    OFFSET -8.44614 -9.41038 0.835684
    CHANNELS 3 Zrotation Xrotation Yrotation
    JOINT simRightLeg
    {
      OFFSET 0 -40.9639 0
      CHANNELS 3 Zrotation Xrotation Yrotation
      JOINT simRightFoot
      {
        OFFSET 0 -40.9639 0
        CHANNELS 3 Zrotation Xrotation Yrotation
        End Site
        {
          OFFSET 0.50614 -9.67405 14.6709
        }
      }
    }
  }
  JOINT simLeftUpLeg
  {
    OFFSET 8.44614 -9.41038 0.835684
    CHANNELS 3 Zrotation Xrotation Yrotation
    JOINT simLeftLeg
    {
      OFFSET 0 -40.9639 0
      CHANNELS 3 Zrotation Xrotation Yrotation
      JOINT simLeftFoot
      {
        OFFSET 0 -40.9639 0
        CHANNELS 3 Zrotation Xrotation Yrotation
        End Site
        {
          OFFSET -0.50614 -9.67405 14.6709
        }
      }
    }
  }
}
MOTION
Frames:	18
Frame Time:	0.0333333
3.00735 99.9317 4.28135 -2.43822 2.17144 -8.41394 -0.984879 -3.82402 2.04182 -82.5282 16.631 4.43837 0.000498986 -5.93013e-05 -12.5627 -13.4375 -15.5425 -4.5257 4.53777 25.3713 -13.8106 85.0266 7.66495 -3.07764 -0.000237129 -2.94276e-05 10.5155 18.5679 -23.3405 2.58663 0.545967 -2.46572 -5.39084 0.00144456 8.45461 0.0251657 -3.33501 -21.1636 -0.340663 9.2644 -0.679677 4.2425 0.00131834 10.2844 -0.00483298 -8.44882 -14.548 -0.566265 
2.79918 99.9153 4.19591 -2.32257 2.44613 -7.93276 -0.93199 -3.69664 2.14448 -80.1098 22.3027 4.7788 0.000494656 -5.81677e-05 -16.7839 -13.2987 -13.2494 -4.61934 4.32358 26.9893 -11.4782 84.2776 6.25088 -3.74877 -0.000236487 -2.93012e-05 11.7679 18.38 -25.0504 3.2072 0.665241 -3.19466 -4.95421 0.000993236 9.46821 0.025236 -4.46336 -22.4476 -1.24065 9.29465 -1.37989 4.23713 0.00136032 10.7734 -0.00484065 -7.70124 -14.9413 -1.02228 
2.57826 99.8883 4.14886 -2.15687 3.04197 -7.13864 -0.942345 -3.84735 2.04292 -76.7892 27.7168 4.33755 0.00049137 -5.70734e-05 -20.0507 -15.1806 -9.66783 -4.59351 4.16672 28.1212 -9.68693 81.7658 7.097 -4.04748 -0.000236153 -2.92297e-05 12.4208 16.1755 -25.3374 3.92117 0.749404 -4.11751 -4.77405 0.000670569 10.1893 0.0252911 -5.28837 -23.5062 -1.92592 9.36417 -2.44522 3.9281 0.00139517 11.178 -0.00484729 -7.48339 -15.3682 -1.6149 
2.33926 99.8418 4.09099 -2.06835 3.43836 -6.03156 -0.912401 -3.67384 1.91205 -73.076 32.5264 3.83163 0.00048798 -5.57194e-05 -23.4937 -15.6662 -8.00064 -3.94699 4.26592 28.8846 -8.70179 78.6238 8.34372 -4.42837 -0.000235889 -2.91703e-05 12.9392 14.1102 -26.0872 3.46265 0.869881 -4.86694 -4.90971 0.000272176 11.075 0.0253646 -5.87919 -24.7115 -2.68694 9.41358 -3.63644 3.13061 0.00147464 12.0965 -0.00486332 -6.97971 -15.9485 -1.79413 
2.06791 99.7619 4.02398 -1.89431 3.94263 -4.99244 -0.913794 -3.28341 1.82903 -69.2277 35.0148 2.37252 0.000486491 -5.5048e-05 -25.0345 -14.8781 -6.81979 -3.28807 4.46161 28.8827 -8.22799 75.1664 9.62218 -4.36271 -0.000235925 -2.91784e-05 12.8697 11.9357 -25.3514 2.37516 0.941232 -6.19381 -4.68609 -0.000461311 12.6916 0.0255156 -6.70131 -25.5981 -3.30129 9.31457 -5.20014 2.10355 0.00160028 13.5358 -0.00489119 -6.05956 -16.8152 -1.81068 
1.79284 99.5673 3.82865 -1.57249 4.485 -4.06335 -1.02491 -2.55554 1.7822 -65.5155 35.4223 0.135626 0.000486829 -5.52045e-05 -24.6834 -14.2259 -7.04861 -3.1316 4.59059 28.2394 -8.07 71.6278 10.5971 -4.04599 -0.000235993 -2.9194e-05 12.7345 10.1335 -24.475 1.3353 0.828124 -8.30262 -4.20243 0.00284476 15.5729 0.0205149 -7.62542 -26.4698 -4.55368 8.95238 -7.64749 0.523564 0.00185266 16.3735 -0.00495634 -4.86547 -17.7285 -1.32195 
1.48734 99.0932 3.56352 -1.1392 5.02729 -3.1575 -1.2132 -1.72781 1.76022 -62.2256 34.6111 -2.25115 0.000488077 -5.57614e-05 -23.3942 -13.5524 -6.818 -2.84876 4.47885 27.2743 -8.11154 68.2179 11.5806 -3.99264 -0.000235892 -2.91708e-05 12.9346 9.1709 -24.2547 1.02659 0.333207 -11.3701 -4.52948 0.0232355 20.4317 0.00926977 -8.19302 -27.8259 -5.78653 8.52109 -10.6919 -0.564618 0.0022274 20.4362 -0.00507473 -4.3488 -19.2518 -1.04516 
1.16073 98.157 3.25297 -0.632573 5.47274 -2.31493 -1.28884 -0.606831 1.81324 -59.4055 33.1493 -4.51486 0.000489071 -5.61811e-05 -22.3763 -12.8065 -6.55061 -2.15054 4.11522 26.1334 -8.16219 64.8519 13.2291 -4.03573 -0.00023557 -2.90951e-05 13.5671 8.68992 -24.4691 1.10896 -0.484093 -15.8632 -5.33806 0.00160961 27.6142 -0.00644797 -8.58367 -29.6905 -6.78393 8.14449 -15.0172 -0.938025 0.00290203 27.2251 -0.00534778 -4.34051 -21.6292 -1.447 
0.869916 96.5375 2.86136 -0.493624 6.32092 -1.33761 -0.900047 0.293346 1.80644 -56.6419 31.8769 -6.68866 0.00048923 -5.62461e-05 -22.2148 -12.3521 -6.86551 -1.76227 3.61775 24.664 -8.34172 61.5058 14.852 -4.17704 -0.000234924 -2.89315e-05 14.843 8.45695 -24.1816 0.779998 -1.16615 -20.6706 -6.35331 0.0017299 35.1451 -0.0181911 -7.68603 -33.1781 -7.63585 8.17511 -20.8884 -1.5597 0.00390018 35.919 -0.00587189 -5.39344 -24.4586 -2.3224 
0.562169 94.1831 2.48724 -1.03082 7.6258 -0.476604 -0.293945 0.81883 1.89042 -53.3474 31.0523 -9.20976 0.00048921 -5.62382e-05 -22.2346 -12.0208 -7.403 -2.08179 3.24404 22.947 -8.23594 58.4798 17.153 -4.19828 -0.000233971 -2.86621e-05 16.7384 8.83651 -25.1483 1.08086 -0.895538 -26.5086 -6.39246 0.00749799 43.7897 -0.0348524 -7.68363 -37.2696 -9.28508 9.40636 -27.5075 -1.31181 0.00135834 45.2909 -0.00675947 -8.44572 -27.8303 -4.58046 
0.232155 91.2849 2.23646 -1.82498 8.81637 -0.421161 0.127559 1.09599 2.29061 -50.1587 30.4863 -11.5456 0.000489626 -5.64063e-05 -21.8117 -11.0025 -7.53119 -2.67515 3.12153 21.3096 -7.74982 55.6876 20.4406 -3.54163 -0.000233256 -2.84372e-05 18.1738 9.35598 -26.0354 1.721 0.480521 -32.6546 -4.78456 -6.81659e-06 53.0791 -0.0593803 -8.82605 -41.3456 -11.8377 11.545 -33.5739 -0.146108 -0.00552254 54.609 -0.00821084 -11.8048 -31.6894 -7.05857 
-0.0474952 88.1765 2.11929 -2.94716 9.80816 -1.2055 0.584197 1.38487 2.80508 -48.2965 28.8112 -13.0713 0.000490859 -5.68844e-05 -20.5643 -9.0347 -6.74485 -2.68921 3.18055 19.9365 -6.76182 53.2313 23.0265 -1.21795 -0.000233427 -2.84928e-05 17.8292 8.92164 -26.0158 2.07302 3.39721 -38.3035 -1.51689 -0.000275789 61.9774 -0.0893718 -9.86278 -44.7257 -14.4603 14.7791 -38.8623 1.78828 -0.0126095 63.5264 -0.0106673 -15.2317 -34.9705 -9.16155 
-0.314159 85.1311 2.10868 -3.66434 10.3878 -2.24187 0.58793 1.81816 3.17417 -48.5879 25.8683 -13.6296 0.000492839 -5.75881e-05 -18.5834 -6.55535 -5.46086 -2.17953 3.45156 18.8187 -5.49011 51.8311 22.8501 2.01627 -0.000234412 -2.8791e-05 15.8593 7.15385 -24.7986 1.12962 6.57386 -42.9783 1.91472 0.000298799 70.0643 -0.126346 -11.6795 -47.3638 -17.3543 17.714 -42.9954 3.76559 -0.0138386 71.5378 -0.0150163 -17.1586 -37.9732 -10.5275 
-0.483873 82.2735 2.17839 -3.58814 10.9141 -3.1893 0.32324 2.08545 3.3318 -50.7403 23.1368 -13.6155 0.000494916 -5.82453e-05 -16.5285 -4.19317 -5.46511 -1.95211 3.16534 17.8436 -4.36618 51.7634 19.9339 5.14824 -0.000235464 -2.90694e-05 13.7754 3.67778 -23.1614 -0.579365 8.56115 -47.0657 4.31022 -0.000534825 77.2414 -0.165196 -13.3778 -49.5738 -19.558 19.2714 -46.6067 4.81691 -0.00501976 78.5669 -0.0239897 -18.2574 -40.3808 -11.064 
-0.553319 79.8251 2.35978 -3.34591 11.2218 -4.03552 0.202956 2.31659 3.40757 -53.8178 21.612 -13.6941 0.000497547 -5.89623e-05 -13.9565 -3.57529 -6.97987 -2.84064 2.11906 16.7954 -3.20312 53.0727 16.5465 7.23891 -0.000235701 -2.91265e-05 13.3084 1.17602 -23.1759 -0.941511 10.4141 -50.4182 6.74589 -0.0018197 83.5322 -0.202914 -14.1819 -50.8925 -20.9634 20.0767 -49.619 5.00966 0.0238363 84.6155 -0.0506753 -19.2226 -41.6309 -11.2999 
-0.527084 77.96 2.68898 -3.31743 11.2092 -4.67207 0.267038 2.47936 3.50405 -57.257 21.5688 -13.6083 0.000499472 -5.94076e-05 -12.0928 -5.0448 -9.17615 -3.33883 1.26427 15.6815 -2.40638 55.0609 15.6083 8.36316 -0.000234986 -2.8948e-05 14.7198 2.20017 -25.5593 0.382777 12.6096 -52.2689 9.45072 0.000196946 87.9581 -0.240561 -15.4762 -51.7609 -22.8909 20.3901 -51.6185 4.34591 0.337793 89.2481 -0.362354 -20.3937 -42.1768 -11.5887 
-0.472454 76.9796 3.28252 -3.29069 11.225 -5.07529 0.33377 2.37267 3.58879 -61.2122 22.1898 -13.0826 0.000500016 -5.95214e-05 -11.5694 -8.39684 -11.3285 -3.70422 0.37122 14.7897 -1.77398 57.1798 17.2228 8.705 -0.00023333 -2.84613e-05 18.0255 6.46911 -26.525 1.84836 14.2269 -52.4875 11.6068 -0.00391155 89.9012 -0.2567 -16.3683 -52.9125 -24.6684 20.0091 -52.1745 3.64404 179.807 88.4038 -179.829 -20.432 -43.178 -10.9569 
-0.365609 77.0632 4.04793 -3.04475 11.1199 -5.74363 0.370937 2.29546 3.77749 -66.0768 22.0081 -10.9815 0.000497354 -5.89141e-05 -14.1438 -12.4711 -13.6853 -3.91016 -0.787616 13.4111 -0.872813 59.2965 20.3095 8.93265 -0.000231417 -2.77662e-05 21.9213 10.0627 -24.9183 3.27959 15.1703 -51.663 13.4785 179.985 89.9512 179.751 -16.8848 -52.7004 -25.6003 18.9252 -51.0683 2.96704 179.793 88.5334 -179.814 -19.6311 -44.1485 -9.49406 
